<svg width="85.000000" height="30.000000" viewBox="0 0 85 30" fill="none" xmlns="http://www.w3.org/2000/svg" xmlns:xlink="http://www.w3.org/1999/xlink">
	<desc>
			Created with Pixso.
	</desc>
	<defs>
		<clipPath id="clip11779_9">
			<rect rx="0.000000" width="84.000000" height="29.000000" transform="translate(0.500000 0.500000)" fill="white" fill-opacity="0"/>
		</clipPath>
	</defs>
	<g clip-path="url(#clip11779_9)">
		<path d="M26.51 14.09C25.12 18.31 21.74 20.68 17.16 20.68C11.46 20.68 7 16.16 7 10.38C7 4.67 11.46 0 16.96 0C22.08 0 27.01 4.21 26.97 11.22L10.31 11.22C10.73 15.32 13.88 17.73 17.16 17.73C19.97 17.73 21.97 16.39 23.04 14.09L26.51 14.09ZM23.35 8.31C22.54 5.09 19.85 2.95 16.96 2.95C14.23 2.95 11.34 4.94 10.5 8.31L23.35 8.31ZM38.48 20.68C35.63 20.68 33.17 19.15 31.74 17.23L31.74 29L28.47 29L28.47 0.49L31.63 0.49L31.63 3.63C33.01 1.64 35.55 0 38.48 0C44.17 0 48.37 4.63 48.37 10.3C48.37 16.05 44.17 20.68 38.48 20.68ZM38.48 2.98C34.82 2.98 31.74 6.28 31.74 10.3C31.74 14.36 34.82 17.69 38.48 17.69C42.17 17.69 45.1 14.36 45.1 10.3C45.1 6.28 42.17 2.98 38.48 2.98ZM49.79 0.49L53.06 0.49L53.06 20.22L49.79 20.22L49.79 0.49ZM54.52 10.39C54.52 4.63 59.22 0 65.16 0C71.11 0 75.8 4.63 75.8 10.39C75.8 16.15 71.06 20.69 65.16 20.69C59.26 20.69 54.52 16.15 54.52 10.39ZM66.06 3.14C60.65 2.67 57.63 6.78 57.63 11.56C57.63 16.34 61.59 20.21 66.47 20.21C68.3 20.22 70.08 19.66 71.58 18.62L70.36 15.52C71.62 14.2 72.36 12.39 72.36 10.38C72.36 6.42 69.58 3.47 66.06 3.14Z" fill="#8491A0" fill-opacity="1.000000" fill-rule="nonzero"/>
		<path d="M62.21 12.37L71.86 20.19L77 20.19L67.59 12.37L62.21 12.37Z" fill="#8491A0" fill-opacity="1.000000" fill-rule="nonzero"/>
	</g>
</svg>
