<svg width="85.000000" height="30.000000" viewBox="0 0 85 30" fill="none" xmlns="http://www.w3.org/2000/svg" xmlns:xlink="http://www.w3.org/1999/xlink">
	<desc>
			Created with Pixso.
	</desc>
	<defs>
		<clipPath id="clip11779_11">
			<rect rx="0.000000" width="84.000000" height="29.000000" transform="translate(0.500000 0.500000)" fill="white" fill-opacity="0"/>
		</clipPath>
	</defs>
	<g clip-path="url(#clip11779_11)">
		<path d="M55.77 1L29.33 1C29.25 1 29.17 1.02 29.11 1.07C29.05 1.12 29.01 1.19 29 1.27C28.99 1.35 29 1.43 29.04 1.49C29.08 1.56 29.14 1.61 29.21 1.64L53.13 9.47C53.16 9.48 53.19 9.48 53.21 9.47C53.24 9.46 53.26 9.44 53.28 9.41L56.84 2.79C56.94 2.61 56.99 2.4 56.99 2.19C56.99 1.98 56.93 1.77 56.82 1.59C56.71 1.41 56.56 1.26 56.37 1.15C56.19 1.05 55.98 1 55.77 1Z" fill="#8491A0" fill-opacity="1.000000" fill-rule="nonzero"/>
		<path d="M29 28.67C29 28.75 29.02 28.82 29.07 28.87C29.11 28.93 29.18 28.97 29.24 28.99C29.31 29 29.39 29 29.45 28.97C29.52 28.94 29.57 28.89 29.61 28.83L34.21 20.3C34.31 20.11 34.47 19.95 34.66 19.84C34.85 19.72 35.06 19.66 35.28 19.66L47.02 19.66C47.24 19.66 47.46 19.6 47.64 19.49C47.83 19.38 47.99 19.22 48.09 19.02L51.6 12.52C51.61 12.51 51.61 12.49 51.61 12.47C51.61 12.46 51.61 12.44 51.6 12.42C51.59 12.41 51.58 12.4 51.56 12.39C51.55 12.38 51.53 12.38 51.51 12.38L30.22 12.38C29.9 12.38 29.59 12.51 29.36 12.73C29.13 12.96 29 13.27 29 13.6L29 28.67Z" fill="#8491A0" fill-opacity="1.000000" fill-rule="nonzero"/>
	</g>
</svg>
