<svg width="154.000000" height="25.000000" viewBox="0 0 154 25" fill="none" xmlns="http://www.w3.org/2000/svg" xmlns:xlink="http://www.w3.org/1999/xlink">
	<desc>
			Created with Pixso.
	</desc>
	<defs>
		<clipPath id="clip37_103">
			<rect id="PlaceforMom" rx="0.000000" width="153.000000" height="24.000000" transform="translate(0.500000 0.500000)" fill="white" fill-opacity="0"/>
		</clipPath>
	</defs>
	<rect id="PlaceforMom" rx="0.000000" width="153.000000" height="24.000000" transform="translate(0.500000 0.500000)" fill="#FFFFFF" fill-opacity="0"/>
	<g clip-path="url(#clip37_103)">
		<path id="Vector" d="M7.96 8.7C7.96 8.37 7.85 8.09 7.62 7.85C7.4 7.61 7.12 7.49 6.79 7.49C5.74 7.49 4.66 8.6 3.53 10.83C2.48 12.84 1.96 14.44 1.96 15.62C1.96 16.7 2.33 17.23 3.06 17.23C4.08 17.23 5.11 16.19 6.14 14.11C6.84 12.7 7.39 11.2 7.78 9.61C7.9 9.15 7.96 8.85 7.96 8.7ZM10.97 14.93L10.97 14.98C10.95 15.01 10.95 15.04 10.95 15.05C10.6 15.89 10.14 16.61 9.58 17.21C8.86 17.93 8.12 18.29 7.34 18.29C6.44 18.29 5.99 17.76 5.99 16.69C5.99 16.41 6.02 16.13 6.07 15.87C4.96 17.49 3.74 18.29 2.43 18.29C1.65 18.29 1.04 17.99 0.59 17.38C0.19 16.85 0 16.18 0 15.38C0 13.73 0.72 11.91 2.16 9.91C3.7 7.8 5.27 6.75 6.86 6.75C7.54 6.75 8.12 7.04 8.58 7.64C8.71 7.14 8.98 6.89 9.38 6.89C10.14 6.89 10.52 7.03 10.52 7.29C10.52 7.34 10.33 7.93 9.95 9.07C8.47 13.47 7.73 16 7.73 16.66C7.73 16.97 7.85 17.13 8.08 17.13C8.55 17.13 9.08 16.71 9.69 15.87C10.29 15.03 10.6 14.61 10.62 14.61C10.85 14.61 10.97 14.72 10.97 14.93Z" fill="#8491A0" fill-opacity="1.000000" fill-rule="nonzero"/>
		<path id="Vector" d="M23.61 5.04C23.61 3.65 23.28 2.66 22.6 2.06C21.93 1.46 20.92 1.17 19.56 1.18C18.49 1.18 17.96 1.41 17.96 1.87L17.96 8.92C18.58 9.02 19.02 9.07 19.31 9.07C22.19 9.05 23.63 7.71 23.61 5.04ZM26.55 5.04C26.55 8.34 24.3 9.98 19.8 9.98C19.22 9.98 18.61 9.95 17.96 9.89L17.96 14.29C17.96 15.84 18.24 16.73 18.78 16.96C18.82 16.97 19.17 17.08 19.85 17.28C20.25 17.38 20.44 17.51 20.43 17.68C20.41 17.87 20.28 17.97 20.03 17.97L13.26 17.97C13.01 17.97 12.88 17.87 12.86 17.68C12.84 17.51 13.04 17.38 13.43 17.28C14.11 17.08 14.47 16.97 14.5 16.96C15.05 16.73 15.32 15.84 15.32 14.29L15.32 4.15C15.32 2.6 15.05 1.71 14.5 1.48C14.47 1.46 14.11 1.35 13.43 1.16C13.04 1.06 12.84 0.93 12.86 0.76C12.88 0.56 13.01 0.46 13.26 0.46L20.55 0.46C22.28 0.46 23.67 0.82 24.73 1.53C25.94 2.32 26.55 3.49 26.55 5.04Z" fill="#8491A0" fill-opacity="1.000000" fill-rule="nonzero"/>
		<path id="Vector" d="M32.71 17.68C32.69 17.87 32.56 17.97 32.31 17.97L26.94 17.97C26.69 17.97 26.56 17.87 26.54 17.68C26.52 17.54 26.71 17.43 27.11 17.33C27.63 17.21 27.98 17.09 28.18 16.96C28.38 16.83 28.49 16.46 28.5 15.87L28.5 14.29L28.5 2.89C28.5 2.44 28.46 2.15 28.38 2.01C28.3 1.87 28.05 1.8 27.63 1.8C27 1.8 26.69 1.7 26.69 1.5C26.69 1.29 26.89 1.14 27.29 1.06C28.25 0.86 29.19 0.59 30.12 0.24C30.24 0.21 30.33 0.19 30.4 0.19C30.56 0.19 30.66 0.29 30.7 0.48C30.73 0.67 30.74 1.07 30.74 1.68L30.74 14.29C30.74 15.95 30.85 16.84 31.07 16.96C31.18 17.02 31.54 17.13 32.14 17.28C32.54 17.4 32.73 17.53 32.71 17.68Z" fill="#8491A0" fill-opacity="1.000000" fill-rule="nonzero"/>
		<path id="Vector" d="M40.05 14.67L40.05 11.91C38.82 12.14 37.9 12.42 37.29 12.75C36.29 13.31 35.8 14.08 35.8 15.06C35.8 15.59 35.95 16.01 36.26 16.33C36.56 16.65 36.98 16.81 37.51 16.81C38.18 16.81 38.77 16.6 39.28 16.2C39.79 15.79 40.05 15.28 40.05 14.67ZM44.61 16.27C44.16 17.54 43.38 18.17 42.27 18.17C41.07 18.17 40.34 17.57 40.08 16.36C38.82 17.57 37.54 18.17 36.24 18.17C35.41 18.17 34.76 17.93 34.28 17.45C33.8 16.98 33.56 16.33 33.56 15.51C33.56 14.01 34.37 12.89 36 12.15C36.92 11.74 38.28 11.42 40.05 11.19C40.1 9.63 39.98 8.61 39.68 8.15C39.43 7.74 38.87 7.55 37.99 7.56C37.26 7.58 36.77 7.81 36.54 8.25C36.43 8.67 36.31 9.08 36.19 9.49C36.03 9.94 35.67 10.16 35.12 10.16C34.39 10.16 34.03 9.85 34.03 9.22C34.03 8.41 34.54 7.78 35.55 7.34C36.33 7.01 37.21 6.84 38.19 6.84C40.87 6.86 42.22 7.78 42.22 9.61L42.22 15.7C42.22 16.59 42.47 17.02 42.96 17.01C43.3 17.01 43.57 16.83 43.8 16.48C44.02 16.12 44.18 15.94 44.28 15.94C44.38 15.94 44.47 15.98 44.54 16.06C44.62 16.13 44.64 16.2 44.61 16.27Z" fill="#8491A0" fill-opacity="1.000000" fill-rule="nonzero"/>
		<path id="Vector" d="M54.37 16.27C53.29 17.67 51.96 18.37 50.39 18.37C48.75 18.37 47.44 17.85 46.46 16.81C45.48 15.77 44.99 14.41 44.99 12.74C44.99 11.07 45.53 9.67 46.62 8.53C47.71 7.39 49.09 6.83 50.76 6.84C51.53 6.84 52.27 7.01 53 7.34C53.91 7.75 54.37 8.3 54.37 8.97C54.37 9.61 54.04 9.94 53.38 9.94C52.98 9.94 52.67 9.75 52.44 9.37C52.22 8.99 52.01 8.61 51.81 8.23C51.51 7.83 51.09 7.64 50.56 7.64C49.47 7.64 48.64 8.16 48.07 9.22C47.64 10.07 47.43 11.09 47.43 12.3C47.43 13.62 47.69 14.74 48.22 15.64C48.85 16.77 49.78 17.33 50.99 17.33C51.68 17.33 52.35 17.08 52.98 16.58C53.11 16.46 53.52 16.04 54.2 15.3C54.28 15.22 54.35 15.18 54.42 15.18C54.57 15.18 54.64 15.3 54.64 15.55C54.64 15.8 54.55 16.04 54.37 16.27Z" fill="#8491A0" fill-opacity="1.000000" fill-rule="nonzero"/>
		<path id="Vector" d="M63.35 10.55C63.25 8.59 62.46 7.62 60.99 7.64C59.39 7.65 58.44 8.79 58.12 11.05L61.23 11.05C62.66 11.05 63.37 10.88 63.35 10.55ZM65.71 11.59C65.71 11.77 65.62 11.88 65.44 11.91L64.89 11.91L58.02 11.91C58.01 12.14 58 12.32 58 12.43C58 13.79 58.25 14.88 58.75 15.72C59.38 16.76 60.32 17.28 61.58 17.28C62.41 17.28 63.12 17.1 63.7 16.74C64 16.54 64.44 16.13 65.02 15.52C65.08 15.46 65.16 15.43 65.24 15.43C65.46 15.43 65.56 15.52 65.56 15.72C65.56 15.79 65.54 15.86 65.49 15.94C64.54 17.54 63.05 18.33 61.01 18.32C59.38 18.3 58.07 17.78 57.08 16.75C56.08 15.72 55.59 14.4 55.59 12.8C55.59 11.16 56.07 9.76 57.05 8.62C58.1 7.42 59.43 6.83 61.06 6.84C62.3 6.84 63.34 7.22 64.17 7.96C65.18 8.85 65.7 10.06 65.71 11.59Z" fill="#8491A0" fill-opacity="1.000000" fill-rule="nonzero"/>
		<path id="Vector" d="M80.3 1.6C80.3 1.85 80.21 2.07 80.04 2.26C79.86 2.45 79.65 2.54 79.4 2.54C79 2.54 78.69 2.25 78.46 1.68C78.22 1.1 77.92 0.81 77.54 0.81C76.67 0.81 75.99 1.32 75.49 2.33C75.31 2.67 75.02 3.54 74.62 4.93L73.95 7.27L76.41 7.27C76.63 7.27 76.74 7.37 76.74 7.57C76.74 7.91 76.56 8.08 76.19 8.08L73.75 8.08L71.26 17.4C70.68 19.57 70.11 21.17 69.55 22.21C68.52 24.07 67.23 25 65.69 25C65.11 25 64.59 24.83 64.15 24.5C63.7 24.17 63.47 23.73 63.47 23.19C63.47 22.45 63.81 22.08 64.48 22.08C64.94 22.08 65.23 22.26 65.34 22.62C65.37 22.75 65.39 23.11 65.39 23.68C65.39 24.06 65.56 24.25 65.91 24.25C66.61 24.25 67.23 23.63 67.76 22.38C68 21.83 68.29 20.9 68.64 19.59L71.69 8.08L69.1 8.08C68.95 8.08 68.87 7.99 68.87 7.8C68.87 7.44 69.03 7.27 69.35 7.27L71.84 7.27C72.5 5.14 73.15 3.58 73.78 2.59C74.85 0.86 76.19 0 77.78 0C78.36 0 78.9 0.12 79.4 0.37C80 0.66 80.3 1.07 80.3 1.6Z" fill="#8491A0" fill-opacity="1.000000" fill-rule="nonzero"/>
		<path id="Vector" d="M82.69 9.52C82.69 8.16 82.23 7.49 81.32 7.49C80.27 7.49 79.31 8.58 78.43 10.78C77.69 12.64 77.31 14.2 77.31 15.45C77.31 16.88 77.8 17.6 78.78 17.6C79.81 17.6 80.76 16.49 81.62 14.26C82.33 12.38 82.69 10.8 82.69 9.52ZM84.5 10.83C84.5 12.54 83.99 14.16 82.96 15.7C81.8 17.43 80.4 18.29 78.76 18.29C77.68 18.29 76.85 17.86 76.27 17.01C75.74 16.27 75.47 15.34 75.47 14.24C75.47 12.54 75.99 10.91 77.04 9.34C78.22 7.59 79.62 6.72 81.24 6.72C82.32 6.72 83.15 7.15 83.73 8.01C84.25 8.77 84.5 9.7 84.5 10.83Z" fill="#8491A0" fill-opacity="1.000000" fill-rule="nonzero"/>
		<path id="Vector" d="M94.58 8.08C94.58 8.38 94.49 8.65 94.32 8.9C94.15 9.14 93.92 9.27 93.64 9.27C93.35 9.27 93.14 9.1 92.99 8.75C92.84 8.4 92.64 8.23 92.39 8.23C91.48 8.23 89.99 11.48 87.91 17.97L85.97 17.97C86.47 16.31 86.97 14.63 87.46 12.95C88.24 10.3 88.63 8.81 88.63 8.48C88.63 8.2 88.51 8.06 88.26 8.06C87.81 8.06 87.39 8.33 86.99 8.87C86.86 9.04 86.59 9.49 86.2 10.23C86.1 10.43 85.95 10.53 85.77 10.53C85.52 10.53 85.4 10.43 85.4 10.23L85.42 10.13C85.64 9.31 86.06 8.56 86.69 7.88C87.41 7.14 88.16 6.77 88.96 6.77C89.84 6.77 90.28 7.27 90.28 8.28C90.28 8.59 90.22 8.98 90.1 9.44C89.99 9.84 89.88 10.22 89.78 10.6C91.04 8.05 92.23 6.77 93.34 6.77C93.7 6.77 94 6.9 94.23 7.15C94.46 7.41 94.58 7.72 94.58 8.08Z" fill="#8491A0" fill-opacity="1.000000" fill-rule="nonzero"/>
		<path id="Vector" d="M117.3 17.68C117.29 17.87 117.15 17.97 116.9 17.97L110.33 17.97C110.09 17.97 109.95 17.87 109.94 17.68C109.92 17.51 110.11 17.38 110.51 17.28C111.19 17.08 111.55 16.97 111.58 16.96C112.13 16.73 112.4 15.84 112.4 14.29L112.4 2.62L105.98 17.65C105.83 18 105.71 18.17 105.63 18.17C105.55 18.17 105.41 17.95 105.21 17.5L99.68 4.89C99.38 4.22 99.08 3.65 98.79 3.18L98.94 14.29C98.95 15.08 98.99 15.62 99.04 15.9C99.15 16.44 99.39 16.79 99.76 16.96C99.79 16.97 100.15 17.08 100.83 17.28C101.23 17.38 101.42 17.51 101.4 17.68C101.38 17.87 101.25 17.97 101 17.97L95.68 17.97C95.43 17.97 95.29 17.87 95.28 17.68C95.26 17.51 95.45 17.38 95.85 17.28C96.53 17.08 96.89 16.97 96.92 16.96C97.28 16.79 97.53 16.42 97.64 15.85C97.71 15.57 97.74 15.05 97.74 14.29L97.87 2.12C97.6 1.91 97.21 1.69 96.7 1.48C96.33 1.38 95.97 1.27 95.63 1.16C95.23 1.06 95.04 0.93 95.05 0.76C95.07 0.56 95.2 0.46 95.45 0.46L98.44 0.46C99.57 0.48 100.21 0.54 100.38 0.63C100.54 0.72 100.79 1.15 101.13 1.92L106.43 14.26L112.15 0.84C112.25 0.59 112.47 0.46 112.82 0.46L116.9 0.46C117.15 0.46 117.29 0.56 117.3 0.76C117.32 0.93 117.13 1.06 116.73 1.16C116.05 1.36 115.69 1.46 115.66 1.48C115.11 1.71 114.84 2.6 114.84 4.15L114.84 14.29C114.84 15.84 115.11 16.73 115.66 16.96C115.69 16.97 116.05 17.08 116.73 17.28C117.13 17.38 117.32 17.51 117.3 17.68Z" fill="#8491A0" fill-opacity="1.000000" fill-rule="nonzero"/>
		<path id="Vector" d="M126.81 12.62C126.81 11.25 126.58 10.12 126.14 9.25C125.56 8.11 124.65 7.54 123.42 7.54C122.2 7.54 121.29 8.12 120.71 9.3C120.26 10.17 120.04 11.29 120.04 12.64C120.04 13.97 120.26 15.06 120.71 15.94C121.31 17.06 122.21 17.63 123.42 17.63C124.65 17.63 125.56 17.06 126.14 15.94C126.58 15.06 126.81 13.96 126.81 12.62ZM129.2 12.47C129.2 14.15 128.65 15.56 127.56 16.68C126.46 17.81 125.07 18.37 123.37 18.37C121.68 18.37 120.31 17.84 119.27 16.78C118.22 15.72 117.7 14.34 117.7 12.64C117.7 10.96 118.25 9.57 119.34 8.48C120.44 7.39 121.83 6.85 123.52 6.85C125.13 6.85 126.48 7.38 127.57 8.46C128.65 9.53 129.2 10.87 129.2 12.47Z" fill="#8491A0" fill-opacity="1.000000" fill-rule="nonzero"/>
		<path id="Vector" d="M150.67 17.68C150.66 17.87 150.53 17.97 150.28 17.97L144.9 17.97C144.65 17.97 144.52 17.87 144.5 17.68C144.49 17.54 144.68 17.43 145.08 17.33C145.59 17.22 145.95 17.09 146.16 16.95C146.37 16.81 146.47 15.92 146.47 14.3L146.47 11.09C146.47 10.09 146.35 9.36 146.1 8.89C145.76 8.27 145.13 7.96 144.18 7.96C143.38 7.96 142.7 8.2 142.14 8.69C141.57 9.17 141.29 9.77 141.29 10.47L141.29 14.3C141.31 15.28 141.32 15.83 141.32 15.92C141.35 16.52 141.45 16.86 141.62 16.96C141.78 17.06 142.14 17.17 142.69 17.31C143.08 17.4 143.27 17.53 143.26 17.68C143.24 17.87 143.11 17.97 142.86 17.97L137.49 17.97C137.24 17.97 137.1 17.87 137.09 17.68C137.07 17.54 137.26 17.43 137.66 17.33C138.17 17.22 138.53 17.09 138.74 16.95C138.95 16.81 139.05 15.92 139.05 14.3L139.05 11.09C139.05 10.09 138.93 9.36 138.68 8.89C138.35 8.27 137.71 7.96 136.76 7.96C135.97 7.96 135.29 8.2 134.72 8.69C134.16 9.17 133.88 9.77 133.88 10.47L133.88 14.3C133.88 15.96 133.98 16.85 134.2 16.96C134.32 17.03 134.67 17.13 135.27 17.28C135.67 17.4 135.86 17.53 135.84 17.68C135.83 17.87 135.69 17.97 135.45 17.97L130.07 17.97C129.82 17.97 129.69 17.87 129.67 17.68C129.65 17.54 129.85 17.44 130.27 17.35C130.78 17.25 131.14 17.12 131.34 16.95C131.54 16.77 131.64 15.89 131.64 14.29L131.64 9.56C131.64 9.12 131.6 8.83 131.51 8.69C131.43 8.55 131.18 8.48 130.77 8.48C130.14 8.48 129.82 8.38 129.82 8.18C129.82 7.97 130.02 7.82 130.42 7.73C131.38 7.54 132.32 7.27 133.25 6.92C133.4 6.89 133.5 6.87 133.55 6.87C133.7 6.87 133.79 6.98 133.82 7.19C133.84 7.34 133.85 7.76 133.87 8.45C134.24 7.98 134.77 7.6 135.47 7.31C136.18 7.02 136.9 6.87 137.65 6.87C139.37 6.87 140.45 7.5 140.88 8.77C141.87 7.5 143.27 6.87 145.06 6.87C146.41 6.87 147.35 7.24 147.86 7.98C148.43 8.79 148.71 10.05 148.71 11.78L148.71 13.01L148.71 14.3C148.71 15.23 148.72 15.78 148.73 15.92C148.77 16.52 148.87 16.86 149.03 16.96C149.2 17.06 149.56 17.17 150.1 17.31C150.5 17.4 150.69 17.53 150.67 17.68Z" fill="#8491A0" fill-opacity="1.000000" fill-rule="nonzero"/>
		<path id="Vector" d="M152.9 16.56C152.85 16.54 152.78 16.53 152.7 16.53L152.61 16.53L152.61 16.92L152.75 16.92C152.83 16.92 152.89 16.9 152.94 16.87C152.99 16.84 153.01 16.78 153.01 16.71C153.01 16.64 152.97 16.59 152.9 16.56ZM152.26 17.63L152.26 16.3C152.35 16.3 152.47 16.3 152.63 16.3C152.8 16.3 152.89 16.3 152.91 16.3C153.02 16.31 153.1 16.33 153.17 16.37C153.29 16.43 153.35 16.54 153.35 16.69C153.35 16.8 153.32 16.88 153.26 16.93C153.2 16.98 153.12 17.01 153.03 17.02C153.11 17.03 153.17 17.06 153.22 17.09C153.29 17.16 153.33 17.26 153.33 17.39L153.33 17.51C153.33 17.52 153.33 17.54 153.34 17.55C153.34 17.56 153.34 17.57 153.35 17.59L153.36 17.63L153.02 17.63C153.01 17.58 153.01 17.52 153 17.44C153 17.36 152.99 17.31 152.98 17.28C152.96 17.23 152.93 17.2 152.88 17.18C152.86 17.17 152.82 17.16 152.76 17.16L152.69 17.16L152.61 17.16L152.61 17.63L152.26 17.63ZM152.08 16.27C151.89 16.46 151.8 16.69 151.8 16.96C151.8 17.24 151.89 17.47 152.09 17.67C152.28 17.86 152.52 17.96 152.79 17.96C153.06 17.96 153.3 17.86 153.49 17.66C153.69 17.47 153.78 17.23 153.78 16.96C153.78 16.69 153.69 16.46 153.49 16.27C153.3 16.07 153.06 15.97 152.79 15.97C152.51 15.97 152.28 16.07 152.08 16.27ZM153.63 17.82C153.4 18.04 153.12 18.16 152.79 18.16C152.45 18.16 152.17 18.04 151.93 17.81C151.7 17.58 151.59 17.3 151.59 16.96C151.59 16.61 151.71 16.32 151.96 16.09C152.2 15.87 152.47 15.76 152.79 15.76C153.12 15.76 153.41 15.88 153.64 16.11C153.88 16.35 154 16.63 154 16.96C154 17.3 153.88 17.59 153.63 17.82Z" fill="#8491A0" fill-opacity="1.000000" fill-rule="nonzero"/>
	</g>
</svg>
