<svg width="41.509644" height="21.000000" viewBox="0 0 41.5096 21" fill="none" xmlns="http://www.w3.org/2000/svg" xmlns:xlink="http://www.w3.org/1999/xlink">
	<desc>
			Created with Pixso.
	</desc>
	<defs/>
	<path id="Vector" d="M29.25 6.86C29.4 6.86 29.55 6.85 29.7 6.83L35.51 15.28C34.97 15.89 34.64 16.69 34.64 17.56C34.64 19.46 36.18 21 38.07 21C39.97 21 41.5 19.46 41.5 17.56C41.5 15.67 39.97 14.13 38.07 14.13C37.63 14.13 37.21 14.22 36.82 14.37L31.24 6.22C32.11 5.6 32.68 4.58 32.68 3.43C32.68 1.53 31.14 0 29.25 0C27.35 0 25.82 1.53 25.82 3.43C25.82 4.62 26.43 5.68 27.36 6.29L21.83 14.3C21.49 14.19 21.13 14.13 20.75 14.13C20.42 14.13 20.1 14.18 19.8 14.26L14.31 6.29C15.24 5.68 15.85 4.62 15.85 3.43C15.85 1.53 14.31 0 12.42 0C10.52 0 8.98 1.53 8.98 3.43C8.98 4.57 9.55 5.59 10.41 6.21L4.76 14.4C4.35 14.23 3.9 14.13 3.43 14.13C1.53 14.13 0 15.67 0 17.56C0 19.46 1.53 21 3.43 21C5.32 21 6.86 19.46 6.86 17.56C6.86 16.74 6.57 15.98 6.08 15.38L11.96 6.83C12.11 6.85 12.26 6.86 12.42 6.86C12.52 6.86 12.62 6.85 12.72 6.85L18.41 15.05C17.74 15.68 17.32 16.57 17.32 17.56C17.32 19.46 18.85 21 20.75 21C22.65 21 24.18 19.46 24.18 17.56C24.18 16.62 23.8 15.77 23.19 15.15L28.94 6.85C29.04 6.85 29.14 6.86 29.25 6.86Z" fill="#8491A0" fill-opacity="1.000000" fill-rule="nonzero"/>
</svg>
