<svg width="24.000000" height="24.000000" viewBox="0 0 24 24" fill="none" xmlns="http://www.w3.org/2000/svg" xmlns:xlink="http://www.w3.org/1999/xlink">
	<desc>
			Created with Pixso.
	</desc>
	<defs>
		<clipPath id="clip16_381">
			<rect rx="0.000000" width="23.000000" height="23.000000" transform="translate(0.500000 0.500000)" fill="white" fill-opacity="0"/>
		</clipPath>
	</defs>
	<rect rx="0.000000" width="23.000000" height="23.000000" transform="translate(0.500000 0.500000)" fill="#FFFFFF" fill-opacity="0"/>
	<g clip-path="url(#clip16_381)">
		<path d="M12 22C6.48 22 2 17.51 2 12C2 6.48 6.48 2 12 2C17.51 2 22 6.48 22 12C22 17.51 17.51 22 12 22ZM20.43 13.36C20.14 13.27 17.78 12.57 15.11 13C16.23 16.07 16.68 18.57 16.77 19.09C18.68 17.79 20.05 15.74 20.43 13.36ZM15.33 19.87C15.2 19.12 14.71 16.51 13.51 13.39C13.49 13.4 13.47 13.41 13.45 13.41C8.64 15.09 6.91 18.43 6.75 18.75C7.95 19.68 9.38 20.28 10.89 20.48C12.4 20.67 13.93 20.47 15.33 19.87ZM5.65 17.72C5.84 17.39 8.19 13.51 12.59 12.08C12.7 12.05 12.82 12.01 12.93 11.98C12.71 11.5 12.48 11.01 12.24 10.53C7.97 11.81 3.83 11.75 3.46 11.75C3.46 11.83 3.45 11.92 3.45 12.01C3.45 14.12 4.23 16.15 5.65 17.72ZM3.63 10.26C4.02 10.26 7.54 10.28 11.53 9.22C10.12 6.7 8.59 4.59 8.36 4.28C5.97 5.41 4.19 7.61 3.63 10.26ZM9.99 3.7C10.23 4.02 11.78 6.13 13.18 8.7C16.22 7.57 17.5 5.84 17.66 5.62C16.63 4.7 15.39 4.05 14.06 3.72C12.73 3.39 11.33 3.38 9.99 3.7ZM18.61 6.61C18.43 6.85 17 8.69 13.84 9.97C14.04 10.38 14.23 10.79 14.4 11.21C14.47 11.36 14.53 11.51 14.59 11.65C17.43 11.29 20.25 11.87 20.54 11.93C20.52 9.99 19.84 8.11 18.61 6.61Z" fill="#E94B88" fill-opacity="1.000000" fill-rule="evenodd"/>
	</g>
</svg>
