<svg width="24.000000" height="24.000000" viewBox="0 0 24 24" fill="none" xmlns="http://www.w3.org/2000/svg" xmlns:xlink="http://www.w3.org/1999/xlink">
	<desc>
			Created with Pixso.
	</desc>
	<defs>
		<clipPath id="clip16_379">
			<rect rx="0.000000" width="23.000000" height="23.000000" transform="translate(0.500000 0.500000)" fill="white" fill-opacity="0"/>
		</clipPath>
	</defs>
	<rect rx="0.000000" width="23.000000" height="23.000000" transform="translate(0.500000 0.500000)" fill="#FFFFFF" fill-opacity="0"/>
	<g clip-path="url(#clip16_379)">
		<path d="M19.65 3L4.34 3C3.63 3 3 3.54 3 4.26L3 19.73C3 20.45 3.63 21 4.34 21L19.65 21C20.37 21 21 20.45 21 19.73L21 4.26C21 3.63 20.37 3 19.65 3ZM8.31 18.46L5.6 18.46L5.6 9.87L8.31 9.87L8.31 18.46ZM6.96 8.6C6.06 8.6 5.42 7.88 5.42 7.07C5.42 6.25 6.15 5.53 6.96 5.53C7.77 5.53 8.48 6.25 8.48 7.07C8.58 7.97 7.85 8.6 6.96 8.6ZM18.29 18.46L15.6 18.46L15.6 14.3C15.6 13.31 15.6 12.04 14.25 12.04C12.9 12.04 12.63 13.13 12.63 14.3L12.63 18.55L9.92 18.55L9.92 9.96L12.45 9.96L12.45 11.14C12.81 10.41 13.71 9.78 14.97 9.78C17.67 9.78 18.2 11.59 18.2 13.85L18.2 18.46L18.29 18.46Z" fill="#0077B5" fill-opacity="1.000000" fill-rule="nonzero"/>
	</g>
</svg>
