<svg width="24.000000" height="24.000000" viewBox="0 0 24 24" fill="none" xmlns="http://www.w3.org/2000/svg" xmlns:xlink="http://www.w3.org/1999/xlink">
	<desc>
			Created with Pixso.
	</desc>
	<defs>
		<clipPath id="clip16_377">
			<rect rx="0.000000" width="23.000000" height="23.000000" transform="translate(0.500000 0.500000)" fill="white" fill-opacity="0"/>
		</clipPath>
	</defs>
	<rect rx="0.000000" width="23.000000" height="23.000000" transform="translate(0.500000 0.500000)" fill="#FFFFFF" fill-opacity="0"/>
	<g clip-path="url(#clip16_377)">
		<path d="M22 6.87C21.31 7.16 20.52 7.36 19.63 7.46C20.42 6.97 21.11 6.18 21.4 5.29C20.62 5.78 19.73 6.08 18.84 6.28C18.15 5.49 17.07 5 15.89 5C13.62 5 11.85 6.77 11.85 8.94C11.85 9.23 11.85 9.53 11.95 9.82C8.6 9.63 5.64 8.05 3.57 5.68C3.18 6.28 2.98 6.97 2.98 7.66C2.98 9.03 3.67 10.22 4.75 11C4.06 11 3.47 10.81 2.88 10.51C2.88 10.51 2.88 10.51 2.88 10.61C2.88 12.58 4.26 14.16 6.13 14.55C5.84 14.65 5.44 14.65 5.05 14.65C4.75 14.65 4.56 14.65 4.26 14.55C4.75 16.13 6.23 17.31 8 17.31C6.63 18.39 4.85 18.99 2.98 18.99C2.68 18.99 2.29 18.99 2 18.89C3.77 20.07 5.94 20.66 8.2 20.66C15.59 20.66 19.73 14.55 19.73 9.33C19.73 9.13 19.73 8.94 19.73 8.84C20.81 8.34 21.5 7.66 22 6.87Z" fill="#26A7DE" fill-opacity="1.000000" fill-rule="evenodd"/>
	</g>
</svg>
