<svg width="78.429504" height="24.000000" viewBox="0 0 78.4295 24" fill="none" xmlns="http://www.w3.org/2000/svg" xmlns:xlink="http://www.w3.org/1999/xlink">
	<desc>
			Created with Pixso.
	</desc>
	<defs/>
	<path d="M4.85 23.7L0 23.7L0 0L5.42 0C6.54 0 7.46 0.05 8.15 0.17C8.88 0.27 9.43 0.5 9.84 0.83C10.24 1.17 10.51 1.66 10.65 2.31C10.81 2.92 10.89 3.77 10.89 4.82L10.89 7.29C10.89 7.91 10.82 8.42 10.68 8.82C10.54 9.22 10.36 9.54 10.14 9.78C9.93 10.02 9.71 10.2 9.47 10.32C9.23 10.42 9.02 10.49 8.82 10.53L8.82 10.65C9.12 10.73 9.39 10.85 9.63 11.01C9.89 11.15 10.1 11.37 10.29 11.67C10.47 11.97 10.61 12.37 10.71 12.87C10.83 13.35 10.89 13.97 10.89 14.73L10.89 23.7L6 23.7L6 13.2C6 12.94 5.96 12.77 5.9 12.69C5.84 12.59 5.69 12.54 5.42 12.54L4.85 12.54L4.85 23.7ZM4.85 8.73L5.42 8.73C5.69 8.73 5.84 8.68 5.9 8.6C5.96 8.51 6 8.33 6 8.07L6 4.82C6 4.56 5.96 4.4 5.9 4.32C5.84 4.21 5.69 4.17 5.42 4.17L4.85 4.17L4.85 8.73ZM22.27 20.19C22.27 21.03 22.2 21.7 22.06 22.2C21.94 22.7 21.7 23.09 21.34 23.37C21 23.63 20.52 23.8 19.9 23.88C19.3 23.96 18.51 24 17.53 24C16.57 24 15.78 23.96 15.16 23.88C14.54 23.8 14.06 23.63 13.72 23.37C13.38 23.09 13.14 22.7 13 22.2C12.88 21.7 12.82 21.03 12.82 20.19L12.82 9.23C12.82 8.39 12.88 7.73 13 7.23C13.14 6.72 13.38 6.35 13.72 6.09C14.06 5.81 14.54 5.63 15.16 5.54C15.78 5.47 16.57 5.42 17.53 5.42C18.51 5.42 19.3 5.47 19.9 5.54C20.52 5.63 21 5.81 21.34 6.09C21.7 6.35 21.94 6.72 22.06 7.23C22.2 7.73 22.27 8.39 22.27 9.23L22.27 20.19ZM16.99 19.35C16.99 19.61 17.02 19.79 17.08 19.89C17.14 19.96 17.29 20.01 17.53 20.01C17.79 20.01 17.95 19.96 18.01 19.89C18.07 19.79 18.1 19.61 18.1 19.35L18.1 10.08C18.1 9.81 18.07 9.65 18.01 9.57C17.95 9.47 17.79 9.42 17.53 9.42C17.29 9.42 17.14 9.47 17.08 9.57C17.02 9.65 16.99 9.81 16.99 10.08L16.99 19.35ZM28.72 0L28.72 6.54C28.98 6.17 29.3 5.93 29.68 5.79C30.08 5.64 30.57 5.57 31.15 5.57C31.73 5.57 32.2 5.64 32.56 5.79C32.92 5.91 33.19 6.11 33.37 6.39C33.57 6.66 33.7 7.04 33.76 7.53C33.84 7.98 33.88 8.56 33.88 9.23L33.88 20.19C33.88 20.89 33.84 21.48 33.76 21.96C33.7 22.42 33.57 22.79 33.37 23.07C33.17 23.35 32.88 23.55 32.5 23.67C32.12 23.79 31.63 23.85 31.03 23.85C30.35 23.85 29.8 23.78 29.38 23.64C28.96 23.48 28.64 23.23 28.42 22.89L28.42 23.7L24.43 23.7L24.43 0L28.72 0ZM29.71 10.08C29.71 9.84 29.68 9.66 29.62 9.57C29.58 9.47 29.45 9.42 29.23 9.42C29.03 9.42 28.88 9.45 28.78 9.54C28.7 9.6 28.64 9.69 28.6 9.84L28.6 19.59C28.64 19.73 28.7 19.84 28.78 19.92C28.88 19.98 29.03 20.01 29.23 20.01C29.45 20.01 29.58 19.95 29.62 19.86C29.68 19.76 29.71 19.59 29.71 19.35L29.71 10.08ZM40.35 3.12L36.09 3.12L36.09 0L40.35 0L40.35 3.12ZM40.35 23.7L36.09 23.7L36.09 5.73L40.35 5.73L40.35 23.7ZM52.55 23.7L48.23 23.7L48.23 10.08C48.23 9.84 48.2 9.66 48.14 9.57C48.1 9.47 47.97 9.42 47.75 9.42C47.55 9.42 47.4 9.45 47.3 9.54C47.22 9.6 47.15 9.69 47.09 9.84L47.09 23.7L42.8 23.7L42.8 5.73L46.79 5.73L46.79 6.54C47.01 6.2 47.33 5.96 47.75 5.82C48.17 5.66 48.72 5.57 49.4 5.57C50 5.57 50.5 5.64 50.9 5.76C51.32 5.88 51.65 6.08 51.89 6.36C52.13 6.63 52.3 7.01 52.4 7.5C52.5 7.95 52.55 8.54 52.55 9.23L52.55 23.7ZM59.19 23.7L54.84 23.7L54.84 19.46L59.19 19.46L59.19 23.7ZM78.42 0L75.96 23.7L69.84 23.7L69.03 6.51L68.91 6.51L67.92 23.7L61.71 23.7L59.88 0L64.77 0L65.28 16.62L65.4 16.62L66.12 0L72.12 0L72.63 16.62L72.75 16.62L73.5 0L78.42 0Z" fill="#FFFFFF" fill-opacity="1.000000" fill-rule="nonzero"/>
</svg>
